<?xml version="1.0" encoding="UTF-8"?>
<!-- Created with Inkscape (http://www.inkscape.org/) -->
<svg width="120" height="120" version="1.1" viewBox="0 0 31.75 31.75" xmlns="http://www.w3.org/2000/svg">
 <path d="m13.871 25.575s-0.76261-1.1789-1.0766-2.9842c-0.31397-1.8053-0.04877-2.4522-0.04877-2.4522l1.7268-0.11774s-0.53795 1.6237-0.51775 2.8205c0.0343 2.0322-0.08373 2.7336-0.08373 2.7336z" fill="#87decd"/>
 <path d="m8.4815 17.538c0.5497 1.849 1.1525 2.6876 1.1525 2.6876l12.302-0.22466s0.74143-2.7149 0.28852-4.7976c-0.86049-3.9586-7.6726-8.5004-7.6726-8.5004s-7.5732 5.7796-6.0706 10.835z" fill="#a40" stroke-width=".90064"/>
 <path d="m18.341 14.579s0.76261 1.1789 1.0766 2.9842c0.31397 1.8053 0.04877 2.4522 0.04877 2.4522l-1.7268 0.11774s0.53795-1.6237 0.51775-2.8205c-0.0343-2.0322 0.08373-2.7336 0.08373-2.7336z" fill="#87decd"/>
</svg>
